General
Complete name                    : Salt.2010.R5.Line.avi
Format                           : AVI
File size                        : 1.36 GiB
Duration                         : 1h 35mn
Overall bit rate                 : 2 046 Kbps

Video

Format                           : MPEG-4 Visual
Codec ID/Hint                    : XviD
Duration                         : 1h 35mn
Bit rate                         : 1 651 Kbps
Width                            : 720 pixels
Height                           : 496 pixels
Display aspect ratio             : 2.065
Stream size                      : 1.10 GiB (81%)
Writing library                  : XviD 1.1.2 (UTC 2006-11-01)

Audio

Format                           : AC-3
Duration                         : 1h 35mn
Bit rate                         : 384 Kbps
Channel(s)                       : 6 channels
Channel positions                : Front: L C R, Side: L R, LFE
Sampling rate                    : 48.0 KHz
Bit depth                        : 16 bits
Stream size                      : 262 MiB (19%)


           *************THX to robin8 & Toya***************

                   -------------Swesub.nu-------------
